<svg xmlns="http://www.w3.org/2000/svg" xmlns:xlink="http://www.w3.org/1999/xlink" aria-hidden="true" role="img" class="iconify iconify--logos" width="35.93" height="32" preserveAspectRatio="xMidYMid meet" viewBox="0 0 256 228"><path fill="#00D8FF" d="M210.483 73.824a171.49 171.49 0 0 0-8.24-2.597c.465-1.9.893-3.777 1.273-5.621c6.238-30.281 2.16-54.676-11.769-62.708c-13.355-7.7-35.196.329-57.254 19.526a171.23 171.23 0 0 0-6.375 5.848a155.866 155.866 0 0 0-4.241-3.917C100.759 3.829 77.587-4.822 63.673 3.233C50.33 10.957 46.379 33.89 51.995 62.588a170.974 170.974 0 0 0 1.892 8.48c-3.28.932-6.445 1.924-9.474 2.98C17.309 83.498 0 98.307 0 113.668c0 15.865 18.582 31.778 46.812 41.427a145.52 145.52 0 0 0 6.921 2.165a167.467 167.467 0 0 0-2.01 9.138c-5.354 28.2-1.173 50.591 12.134 58.266c13.744 7.926 36.812-.22 59.273-19.855a145.567 145.567 0 0 0 5.342-4.923a168.064 168.064 0 0 0 6.92 6.314c21.758 18.722 43.246 26.282 56.54 18.586c13.731-7.949 18.194-32.003 12.4-61.268a145.016 145.016 0 0 0-1.535-6.842c1.62-.48 3.21-.985 4.76-1.52c29.151-10.09 48.443-25.958 48.443-42.056c0-15.576-18.104-30.68-45.996-40.608Zm-6.468 79.999c-1.39.463-2.812.907-4.26 1.334c-3.97-12.59-9.612-26.046-16.72-39.84c6.768-13.442 12.134-26.604 15.927-38.963c2.635.74 5.183 1.524 7.625 2.357c24.57 8.404 38.413 20.604 38.413 31.13c0 11.07-14.89 24.004-40.985 33.982ZM128.076 177.14c-4.197 4.017-8.536 7.67-12.943 10.912c-20.191 14.862-38.87 20.263-47.645 15.185c-9.186-5.308-12.89-25.293-8.12-49.485a156.923 156.923 0 0 1 1.833-8.352c13.094 3.082 27.258 5.29 42.09 6.538c8.943 12.387 18.452 23.623 28.286 33.202Zm-51.59-66.895c3.454 5.98 7.124 11.86 10.99 17.59c-11.92-.948-23.16-2.59-33.41-4.85c3.12-10.31 7.31-21.15 12.46-32.12c3.18 6.17 6.52 12.48 9.96 19.38Zm10.95 27.38c5.58 7.71 11.5 14.97 17.69 21.68c-11.56-.77-22.64-2.24-32.98-4.35c3.13-5.54 6.49-11.27 10.05-17.12c1.72 0 3.48-.07 5.24-.21Zm28.49 29.29c-6.18-6.68-12.35-14.13-18.45-22.22c5.98.26 12.09.4 18.29.4c6.32 0 12.56-.15 18.66-.44c-5.92 7.96-11.93 15.32-18.5 22.26Zm54.92-57.49c5.39 11.17 9.77 22.21 13.04 32.69c-10.48 2.43-21.94 4.22-34.08 5.29c3.82-5.89 7.5-11.94 10.98-18.12c3.56-6.29 6.9-12.62 10.06-18.86Zm-10.08-27.17c-3.45 5.95-7.1 11.98-10.96 18.05c-3.79 5.97-7.76 11.83-11.87 17.52c-6.19.25-12.5.38-18.89.38c-6.47 0-12.85-.13-19.1-.38c-4.07-5.68-8-11.52-11.76-17.47c-3.82-6.05-7.44-12.08-10.87-18.03c3.43-5.97 7.06-12.01 10.88-18.07c3.76-5.96 7.69-11.81 11.76-17.5c6.24-.25 12.62-.38 19.09-.38c6.39 0 12.7.13 18.89.38c4.11 5.69 8.08 11.54 11.87 17.5c3.86 6.06 7.51 12.1 10.96 18.07Zm18.95-27.17c-3.05 6.17-6.38 12.48-9.94 18.89c-3.44-5.95-7.08-11.88-10.91-17.73c11.92.95 23.13 2.58 33.32 4.83c-3.12 10.31-7.31 21.15-12.47 32.14c-3.18-6.17-6.52-12.48-9.96-19.38c3.47-6.03 7.1-12.08 10.96-18.75Zm-28.49-29.29c6.18 6.68 12.35 14.13 18.45 22.22c-5.98-.26-12.09-.4-18.29-.4c-6.32 0-12.56.15-18.66.44c5.92-7.96 11.93-15.32 18.5-22.26ZM68.51 50.62c9.18 5.31 12.89 25.29 8.12 49.49a156.923 156.923 0 0 1-1.83 8.35c-13.09-3.08-27.26-5.29-42.09-6.54c-8.94-12.39-18.45-23.62-28.29-33.2c4.2-4.02 8.54-7.67 12.94-10.91c20.19-14.86 38.87-20.26 47.65-15.19h-.5Zm-40.5 66.89c-3.45-5.98-7.12-11.86-10.99-17.59c11.92.95 23.16 2.59 33.41 4.85c-3.12 10.31-7.31 21.15-12.46 32.12c-3.18-6.17-6.52-12.48-9.96-19.38Zm10.95-27.38c-5.58-7.71-11.5-14.97-17.69-21.68c11.56.77 22.64 2.24 32.98 4.35c-3.13 5.54-6.49 11.27-10.05 17.12c-1.72 0-3.48.07-5.24.21Zm-28.49-29.29c6.18 6.68 12.35 14.13 18.45 22.22c-5.98.26-12.09.4-18.29.4c-6.32 0-12.56-.15-18.66-.44c5.92-7.96 11.93-15.32 18.5-22.18Zm-54.92 57.49c-5.39-11.17-9.77-22.21-13.04-32.69c10.48-2.43 21.94-4.22 34.08-5.29c-3.82 5.89-7.5 11.94-10.98 18.12c-3.56 6.29-6.9 12.62-10.06 18.86Zm10.08 27.17c3.45-5.95 7.1-11.98 10.96-18.05c3.79-5.97 7.76-11.83 11.87-17.52c6.19-.25 12.5-.38 18.89-.38c6.47 0 12.85.13 19.1.38c4.07 5.68 8 11.52 11.76 17.47c3.82 6.05 7.44 12.08 10.87 18.03c-3.43 5.97-7.06 12.01-10.88 18.07c-3.76 5.96-7.69 11.81-11.76 17.5c-6.24.25-12.62.38-19.09.38c-6.39 0-12.7-.13-18.89-.38c-4.11-5.69-8.08-11.54-11.87-17.5c-3.86-6.06-7.51-12.1-10.96-18.07Zm-18.95 27.17c3.05-6.17 6.38-12.48 9.94-18.89c3.44 5.95 7.08 11.88 10.91 17.73c-11.92-.95-23.13-2.58-33.32-4.83c3.12-10.31 7.31-21.15 12.47-32.14c3.18 6.17 6.52 12.48 9.96 19.38c-3.47 6.03-7.1 12.08-10.96 18.75Zm28.49 29.29c-6.18-6.68-12.35-14.13-18.45-22.22c5.98.26 12.09.4 18.29.4c6.32 0 12.56-.15 18.66-.44c-5.92 7.96-11.93 15.32-18.5 22.26Z"/><circle cx="128" cy="128" r="26.5" fill="#00D8FF"/></svg>
